<?xml version="1.0" encoding="utf-8"?><svg viewBox="0 0 800 800" xmlns="http://www.w3.org/2000/svg" xmlns:xlink="http://www.w3.org/1999/xlink"><style>:root>svg{display:none}:root>svg:target{display:block}</style><svg viewBox="0 -960 960 960" fill="#e8eaed" id="arrow-right" xmlns="http://www.w3.org/2000/svg">
    <path d="m560-240-56-58 142-142H160v-80h486L504-662l56-58 240 240-240 240Z"/>
</svg><svg viewBox="0 -960 960 960" fill="#e8eaed" id="code" xmlns="http://www.w3.org/2000/svg">
    <path d="M320-240 80-480l240-240 57 57-184 184 183 183-56 56Zm320 0-57-57 184-184-183-183 56-56 240 240-240 240Z"/>
</svg><svg viewBox="0 -960 960 960" fill="#e8eaed" id="fast" xmlns="http://www.w3.org/2000/svg">
    <path d="m226-559 78 33q14-28 29-54t33-52l-56-11-84 84Zm142 83 114 113q42-16 90-49t90-75q70-70 109.5-155.5T806-800q-72-5-158 34.5T492-656q-42 42-75 90t-49 90Zm178-65q-23-23-23-56.5t23-56.5q23-23 57-23t57 23q23 23 23 56.5T660-541q-23 23-57 23t-57-23Zm19 321 84-84-11-56q-26 18-52 32.5T532-299l33 79Zm313-653q19 121-23.5 235.5T708-419l20 99q4 20-2 39t-20 33L538-80l-84-197-171-171-197-84 167-168q14-14 33.5-20t39.5-2l99 20q104-104 218-147t235-24ZM157-321q35-35 85.5-35.5T328-322q35 35 34.5 85.5T327-151q-25 25-83.5 43T82-76q14-103 32-161.5t43-83.5Zm57 56q-10 10-20 36.5T180-175q27-4 53.5-13.5T270-208q12-12 13-29t-11-29q-12-12-29-11.5T214-265Z"/>
</svg><svg viewBox="0 0 24 24" fill="none" id="instagram" xmlns="http://www.w3.org/2000/svg">
    <path fill-rule="evenodd" clip-rule="evenodd" d="M12 18a6 6 0 1 0 0-12 6 6 0 0 0 0 12Zm0-2a4 4 0 1 0 0-8 4 4 0 0 0 0 8Z" fill="#0F0F0F"/>
    <path d="M18 5a1 1 0 1 0 0 2 1 1 0 0 0 0-2Z" fill="#0F0F0F"/>
    <path fill-rule="evenodd" clip-rule="evenodd" d="M1.654 4.276C1 5.56 1 7.24 1 10.6v2.8c0 3.36 0 5.04.654 6.324a6 6 0 0 0 2.622 2.622C5.56 23 7.24 23 10.6 23h2.8c3.36 0 5.04 0 6.324-.654a6 6 0 0 0 2.622-2.622C23 18.44 23 16.76 23 13.4v-2.8c0-3.36 0-5.04-.654-6.324a6 6 0 0 0-2.622-2.622C18.44 1 16.76 1 13.4 1h-2.8c-3.36 0-5.04 0-6.324.654a6 6 0 0 0-2.622 2.622ZM13.4 3h-2.8c-1.713 0-2.878.002-3.778.075-.877.072-1.325.202-1.638.361a4 4 0 0 0-1.748 1.748c-.16.313-.29.761-.36 1.638C3.001 7.722 3 8.887 3 10.6v2.8c0 1.713.002 2.878.075 3.778.072.877.202 1.325.361 1.638a4 4 0 0 0 1.748 1.748c.313.16.761.29 1.638.36.9.074 2.065.076 3.778.076h2.8c1.713 0 2.878-.002 3.778-.075.877-.072 1.325-.202 1.638-.361a4 4 0 0 0 1.748-1.748c.16-.313.29-.761.36-1.638.074-.9.076-2.065.076-3.778v-2.8c0-1.713-.002-2.878-.075-3.778-.072-.877-.202-1.325-.361-1.638a4 4 0 0 0-1.748-1.748c-.313-.16-.761-.29-1.638-.36C16.278 3.001 15.113 3 13.4 3Z" fill="#0F0F0F"/>
</svg><svg viewBox="0 -960 960 960" fill="#e8eaed" id="intuitive" xmlns="http://www.w3.org/2000/svg">
    <path d="M390-120q-51 0-88-35.5T260-241q-60-8-100-53t-40-106q0-21 5.5-41.5T142-480q-11-18-16.5-38t-5.5-42q0-61 40-105.5t99-52.5q3-51 41-86.5t90-35.5q26 0 48.5 10t41.5 27q18-17 41-27t49-10q52 0 89.5 35t40.5 86q59 8 99.5 53T840-560q0 22-5.5 42T818-480q11 18 16.5 38.5T840-400q0 62-40.5 106.5T699-241q-5 50-41.5 85.5T570-120q-25 0-48.5-9.5T480-156q-19 17-42 26.5t-48 9.5Zm130-590v460q0 21 14.5 35.5T570-200q20 0 34.5-16t15.5-36q-21-8-38.5-21.5T550-306q-10-14-7.5-30t16.5-26q14-10 30-7.5t26 16.5q11 16 28 24.5t37 8.5q33 0 56.5-23.5T760-400q0-5-.5-10t-2.5-10q-17 10-36.5 15t-40.5 5q-17 0-28.5-11.5T640-440q0-17 11.5-28.5T680-480q33 0 56.5-23.5T760-560q0-33-23.5-56T680-640q-11 18-28.5 31.5T613-587q-16 6-31-1t-20-23q-5-16 1.5-31t22.5-20q15-5 24.5-18t9.5-30q0-21-14.5-35.5T570-760q-21 0-35.5 14.5T520-710Zm-80 460v-460q0-21-14.5-35.5T390-760q-21 0-35.5 14.5T340-710q0 16 9 29.5t24 18.5q16 5 23 20t2 31q-6 16-21 23t-31 1q-21-8-38.5-21.5T279-640q-32 1-55.5 24.5T200-560q0 33 23.5 56.5T280-480q17 0 28.5 11.5T320-440q0 17-11.5 28.5T280-400q-21 0-40.5-5T203-420q-2 5-2.5 10t-.5 10q0 33 23.5 56.5T280-320q20 0 37-8.5t28-24.5q10-14 26-16.5t30 7.5q14 10 16.5 26t-7.5 30q-14 19-32 33t-39 22q1 20 16 35.5t35 15.5q21 0 35.5-14.5T440-250Zm40-230Z"/>
</svg><svg viewBox="0 -960 960 960" fill="#e8eaed" id="responsive" xmlns="http://www.w3.org/2000/svg">
    <path d="M120-120v-520h200v-200h520v720H120Zm520-80h120v-560H400v120h240v440Zm-240 0h160v-360H400v360Zm-200 0h120v-360H200v360Zm440-440v80-80Zm-320 80Zm240 0Zm80-80Z"/>
</svg><svg viewBox="0 0 48 48" fill="none" id="tg" xmlns="http://www.w3.org/2000/svg">
    <path d="M41.42 7.309s3.885-1.515 3.56 2.164c-.107 1.515-1.078 6.818-1.834 12.553l-2.59 16.99s-.216 2.489-2.159 2.922c-1.942.432-4.856-1.515-5.396-1.948-.432-.325-8.094-5.195-10.792-7.575-.756-.65-1.62-1.948.108-3.463L33.648 18.13c1.295-1.298 2.59-4.328-2.806-.649l-15.11 10.28s-1.727 1.083-4.964.109l-7.016-2.165s-2.59-1.623 1.835-3.246c10.793-5.086 24.068-10.28 35.831-15.15Z" fill="#000"/>
</svg><svg viewBox="-2.5 0 32 32" id="vk" xmlns="http://www.w3.org/2000/svg">
    <path d="M16.563 15.75c-.5-.188-.5-.906-.531-1.406-.125-1.781.5-4.5-.25-5.656-.531-.688-3.094-.625-4.656-.531-.438.063-.969.156-1.344.344s-.75.5-.75.781c0 .406.938.344 1.281.875.375.563.375 1.781.375 2.781 0 1.156-.188 2.688-.656 2.75-.719.031-1.125-.688-1.5-1.219a20.851 20.851 0 0 1-2.063-3.563c-.281-.656-.438-1.375-.844-1.656-.625-.438-1.75-.469-2.844-.438-1 .031-2.438-.094-2.719.5-.219.656.25 1.281.5 1.813 1.281 2.781 2.656 5.219 4.344 7.531 1.563 2.156 3.031 3.875 5.906 4.781.813.25 4.375.969 5.094 0 .25-.375.188-1.219.313-1.844s.281-1.25.875-1.281c.5-.031.781.406 1.094.719.344.344.625.625.875.938.594.594 1.219 1.406 1.969 1.719 1.031.438 2.625.313 4.125.25 1.219-.031 2.094-.281 2.188-1 .063-.563-.563-1.375-.938-1.844-.938-1.156-1.375-1.5-2.438-2.563-.469-.469-1.063-.969-1.063-1.531-.031-.344.25-.656.5-1 1.094-1.625 2.188-2.781 3.188-4.469.281-.5.938-1.656.688-2.219-.281-.625-1.844-.438-2.813-.438-1.25 0-2.875-.094-3.188.156-.594.406-.844 1.063-1.125 1.688-.625 1.438-1.469 2.906-2.344 4-.313.375-.906 1.156-1.25 1.031z"/>
</svg><svg viewBox="0 0 24 24" fill="none" id="whatsapp" xmlns="http://www.w3.org/2000/svg">
    <path d="M6.014 8.006c.114-.904 1.289-2.132 2.22-1.996V6.01c.907.172 1.625 1.734 2.03 2.436.286.509.1 1.025-.167 1.243-.361.29-.926.692-.808 1.095C9.5 11.5 12 14 13.23 14.711c.466.269.804-.44 1.092-.804.21-.28.726-.447 1.234-.171.759.442 1.474.956 2.135 1.534.33.276.408.684.179 1.115-.403.76-1.569 1.76-2.415 1.557C13.976 17.587 8 15.27 6.08 8.558c-.108-.318-.08-.438-.066-.552Z" fill="#0F0F0F"/>
    <path fill-rule="evenodd" clip-rule="evenodd" d="M12 23c-1.224 0-1.9-.131-3-.5l-2.106 1.053A2 2 0 0 1 4 21.763V19.5c-2.153-2.008-3-4.323-3-7.5C1 5.925 5.925 1 12 1s11 4.925 11 11-4.925 11-11 11Zm-6-4.37-.636-.593C3.691 16.477 3 14.733 3 12a9 9 0 1 1 9 9c-.986 0-1.448-.089-2.364-.396l-.788-.264L6 21.764V18.63Z" fill="#0F0F0F"/>
</svg></svg>